<?xml version="1.0" encoding="utf-8"?>
<svg version="1.1" xmlns="http://www.w3.org/2000/svg" xmlns:xlink="http://www.w3.org/1999/xlink" x="0px" y="0px"
	 viewBox="0 0 22 22" enable-background="new 0 0 22 22" xml:space="preserve">
		<path fill="#FFFFFF" d="M11,0C4.92,0,0,4.92,0,11s4.92,11,11,11c6.08,0,11-4.92,11-11S17.08,0,11,0z M11,20c-4.97,0-9-4.03-9-9
			c0-4.97,4.03-9,9-9c4.97,0,9,4.03,9,9C20,15.97,15.97,20,11,20z M12.33,15.42c-0.29,0-0.5-0.05-0.62-0.14
			c-0.12-0.09-0.18-0.27-0.18-0.53c0-0.1,0.02-0.26,0.06-0.46c0.04-0.2,0.08-0.38,0.12-0.54l0.57-1.96
			c0.06-0.18,0.09-0.38,0.11-0.59c0.02-0.22,0.03-0.37,0.03-0.45c0-0.41-0.15-0.75-0.45-1.01c-0.3-0.26-0.72-0.39-1.27-0.39
			c-0.3,0-0.63,0.05-0.97,0.16C9.4,9.63,9.04,9.75,8.66,9.9l-0.15,0.61c0.11-0.04,0.24-0.08,0.4-0.13c0.16-0.04,0.31-0.07,0.45-0.07
			c0.3,0,0.5,0.05,0.61,0.15c0.11,0.1,0.16,0.27,0.16,0.52c0,0.14-0.02,0.29-0.05,0.46c-0.03,0.17-0.08,0.35-0.13,0.53l-0.57,1.96
			c-0.05,0.21-0.09,0.39-0.11,0.55c-0.02,0.16-0.03,0.32-0.03,0.48c0,0.4,0.15,0.74,0.46,1c0.31,0.26,0.74,0.39,1.29,0.39
			c0.36,0,0.67-0.05,0.95-0.14c0.27-0.09,0.64-0.23,1.09-0.4l0.15-0.61c-0.08,0.04-0.2,0.08-0.38,0.12
			C12.62,15.4,12.47,15.42,12.33,15.42z M11.97,5.78c-0.37,0-0.69,0.12-0.96,0.36c-0.27,0.24-0.4,0.53-0.4,0.87
			c0,0.34,0.13,0.63,0.4,0.87c0.27,0.24,0.59,0.36,0.96,0.36c0.37,0,0.69-0.12,0.96-0.36c0.26-0.24,0.4-0.53,0.4-0.87
			c0-0.34-0.13-0.63-0.4-0.87C12.66,5.9,12.34,5.78,11.97,5.78z"/>
</svg>
