<?xml version="1.0" encoding="utf-8"?>
<svg version="1.1" xmlns="http://www.w3.org/2000/svg" xmlns:xlink="http://www.w3.org/1999/xlink" x="0px" y="0px"
	 viewBox="0 0 22 22" enable-background="new 0 0 22 22" xml:space="preserve">
<path fill-rule="evenodd" clip-rule="evenodd" fill="#FFFFFF" d="M11,22C4.92,22,0,17.08,0,11C0,4.92,4.92,0,11,0s11,4.92,11,11
	C22,17.08,17.08,22,11,22z M2.1,11c0,2.12,0.74,4.07,1.98,5.6L16.6,4.08C15.07,2.84,13.12,2.1,11,2.1C6.08,2.1,2.1,6.08,2.1,11z
	 M17.92,5.4L5.4,17.92c1.53,1.24,3.48,1.98,5.6,1.98c4.92,0,8.9-3.99,8.9-8.9C19.9,8.88,19.16,6.93,17.92,5.4z"/>
</svg>