<?xml version="1.0" encoding="utf-8"?>
<svg version="1.1" xmlns="http://www.w3.org/2000/svg" xmlns:xlink="http://www.w3.org/1999/xlink" x="0px" y="0px"
	 viewBox="0 0 22 22" enable-background="new 0 0 22 22" xml:space="preserve">
		<path fill="#FFFFFF" d="M11,0C4.92,0,0,4.92,0,11c0,6.08,4.92,11,11,11c6.08,0,11-4.92,11-11C22,4.92,17.08,0,11,0z M11,20
			c-4.97,0-9-4.03-9-9c0-4.97,4.03-9,9-9c4.97,0,9,4.03,9,9C20,15.97,15.97,20,11,20z M15.4,6.73c-0.45-0.28-1.03-0.14-1.31,0.3
			l-4.02,6.46l-1.6-2.11c-0.32-0.42-0.91-0.5-1.33-0.18c-0.42,0.32-0.5,0.91-0.18,1.33l2.43,3.21c0.18,0.24,0.46,0.38,0.76,0.38
			c0.01,0,0.03,0,0.04,0c0.31-0.01,0.6-0.18,0.76-0.45l4.75-7.63C15.98,7.59,15.85,7.01,15.4,6.73z"/>
</svg>
