<?xml version="1.0" encoding="utf-8"?>
<svg version="1.1" xmlns="http://www.w3.org/2000/svg" xmlns:xlink="http://www.w3.org/1999/xlink" x="0px" y="0px"
	 viewBox="0 0 22 22" enable-background="new 0 0 22 22" xml:space="preserve">
		<path fill="#FFFFFF" d="M11,0C4.92,0,0,4.92,0,11c0,6.08,4.92,11,11,11c6.08,0,11-4.92,11-11C22,4.92,17.08,0,11,0z M11,20
			c-4.97,0-9-4.03-9-9s4.03-9,9-9c4.97,0,9,4.03,9,9S15.97,20,11,20z M11,13.48c-0.54,0-1,0.18-1.4,0.53
			c-0.4,0.35-0.59,0.77-0.59,1.25c0,0.48,0.2,0.9,0.59,1.24c0.4,0.35,0.86,0.52,1.4,0.52c0.53,0,0.99-0.17,1.39-0.52
			c0.4-0.35,0.59-0.76,0.59-1.24c0-0.48-0.2-0.9-0.59-1.25C12,13.66,11.53,13.48,11,13.48z M12.41,5.4
			c-0.4-0.26-0.87-0.39-1.41-0.39c-0.55,0-1.02,0.13-1.41,0.39C9.19,5.66,8.99,5.97,8.99,6.33c0,0.18,0.05,0.45,0.16,0.81
			c0.11,0.36,0.23,0.72,0.36,1.1c0.14,0.41,0.31,0.91,0.49,1.51c0.19,0.6,0.38,1.35,0.59,2.26h0.79c0.21-0.89,0.4-1.65,0.59-2.25
			c0.19-0.61,0.35-1.12,0.49-1.52c0.15-0.43,0.28-0.81,0.38-1.13C12.95,6.78,13,6.53,13,6.33C13,5.97,12.81,5.66,12.41,5.4z"/>
</svg>